<?xml version="1.0" encoding="UTF-8" standalone="no"?>
<!DOCTYPE svg PUBLIC "-//W3C//DTD SVG 1.1//EN"
 "http://www.w3.org/Graphics/SVG/1.1/DTD/svg11.dtd">
<!-- Generated by graphviz version 2.44.1 (20200629.0846)
 -->
<!-- Title: dependencies Pages: 1 -->
<svg width="954pt" height="284pt"
 viewBox="0.00 0.00 954.00 284.00" xmlns="http://www.w3.org/2000/svg" xmlns:xlink="http://www.w3.org/1999/xlink">
<g id="graph0" class="graph" transform="scale(1 1) rotate(0) translate(4 280)">
<title>dependencies</title>
<polygon fill="white" stroke="transparent" points="-4,4 -4,-280 950,-280 950,4 -4,4"/>
<text text-anchor="start" x="452.01" y="-42.4" font-family="sans-serif" font-weight="bold" font-size="14.00">Legend</text>
<polygon fill="#ffffb3" stroke="transparent" points="239,-10 239,-30 259,-30 259,-10 239,-10"/>
<text text-anchor="start" x="262.63" y="-15.4" font-family="sans-serif" font-size="14.00"> &#160;Declarations</text>
<polygon fill="#8dd3c7" stroke="transparent" points="352,-10 352,-30 372,-30 372,-10 352,-10"/>
<text text-anchor="start" x="375.73" y="-15.4" font-family="sans-serif" font-size="14.00"> &#160;Module</text>
<polygon fill="#80b1d3" stroke="transparent" points="438,-10 438,-30 458,-30 458,-10 438,-10"/>
<text text-anchor="start" x="461.78" y="-15.4" font-family="sans-serif" font-size="14.00"> &#160;Bootstrap</text>
<polygon fill="#fdb462" stroke="transparent" points="535,-10 535,-30 555,-30 555,-10 535,-10"/>
<text text-anchor="start" x="558.67" y="-15.4" font-family="sans-serif" font-size="14.00"> &#160;Providers</text>
<polygon fill="#fb8072" stroke="transparent" points="631,-10 631,-30 651,-30 651,-10 631,-10"/>
<text text-anchor="start" x="654.73" y="-15.4" font-family="sans-serif" font-size="14.00"> &#160;Exports</text>
<g id="clust1" class="cluster">
<title>cluster_SharedModule</title>
<polygon fill="none" stroke="black" stroke-dasharray="1,5" points="8,-70 8,-268 938,-268 938,-70 8,-70"/>
</g>
<g id="clust9" class="cluster">
<title>cluster_SharedModule_exports</title>
<polygon fill="none" stroke="black" points="88,-208 88,-260 815,-260 815,-208 88,-208"/>
</g>
<g id="clust8" class="cluster">
<title>cluster_SharedModule_imports</title>
<polygon fill="none" stroke="black" points="808,-78 808,-130 930,-130 930,-78 808,-78"/>
</g>
<g id="clust2" class="cluster">
<title>cluster_SharedModule_declarations</title>
<polygon fill="none" stroke="black" points="16,-78 16,-130 800,-130 800,-78 16,-78"/>
</g>
<!-- CustomizePaginatorDirective -->
<g id="node1" class="node">
<title>CustomizePaginatorDirective</title>
<polygon fill="#ffffb3" stroke="black" points="791.62,-122 610.38,-122 610.38,-86 791.62,-86 791.62,-122"/>
<text text-anchor="middle" x="701" y="-99.8" font-family="Times,serif" font-size="14.00">CustomizePaginatorDirective</text>
</g>
<!-- SharedModule -->
<g id="node6" class="node">
<title>SharedModule</title>
<polygon fill="#8dd3c7" stroke="black" points="508.42,-187 505.42,-191 484.42,-191 481.42,-187 409.58,-187 409.58,-151 508.42,-151 508.42,-187"/>
<text text-anchor="middle" x="459" y="-164.8" font-family="Times,serif" font-size="14.00">SharedModule</text>
</g>
<!-- CustomizePaginatorDirective&#45;&gt;SharedModule -->
<g id="edge1" class="edge">
<title>CustomizePaginatorDirective&#45;&gt;SharedModule</title>
<path fill="none" stroke="black" d="M636.97,-122.01C636.97,-138.05 636.97,-159 636.97,-159 636.97,-159 518.57,-159 518.57,-159"/>
<polygon fill="black" stroke="black" points="518.57,-155.5 508.57,-159 518.57,-162.5 518.57,-155.5"/>
</g>
<!-- HeaderComponent -->
<g id="node2" class="node">
<title>HeaderComponent</title>
<polygon fill="#ffffb3" stroke="black" points="591.74,-122 470.26,-122 470.26,-86 591.74,-86 591.74,-122"/>
<text text-anchor="middle" x="531" y="-99.8" font-family="Times,serif" font-size="14.00">HeaderComponent</text>
</g>
<!-- HeaderComponent&#45;&gt;SharedModule -->
<g id="edge2" class="edge">
<title>HeaderComponent&#45;&gt;SharedModule</title>
<path fill="none" stroke="black" d="M489.17,-122.11C489.17,-122.11 489.17,-140.99 489.17,-140.99"/>
<polygon fill="black" stroke="black" points="485.67,-140.99 489.17,-150.99 492.67,-140.99 485.67,-140.99"/>
</g>
<!-- LoadingComponent -->
<g id="node3" class="node">
<title>LoadingComponent</title>
<polygon fill="#ffffb3" stroke="black" points="451.99,-122 324.01,-122 324.01,-86 451.99,-86 451.99,-122"/>
<text text-anchor="middle" x="388" y="-99.8" font-family="Times,serif" font-size="14.00">LoadingComponent</text>
</g>
<!-- LoadingComponent&#45;&gt;SharedModule -->
<g id="edge3" class="edge">
<title>LoadingComponent&#45;&gt;SharedModule</title>
<path fill="none" stroke="black" d="M430.89,-122.11C430.89,-122.11 430.89,-140.99 430.89,-140.99"/>
<polygon fill="black" stroke="black" points="427.39,-140.99 430.89,-150.99 434.39,-140.99 427.39,-140.99"/>
</g>
<!-- NewsCardComponent -->
<g id="node4" class="node">
<title>NewsCardComponent</title>
<polygon fill="#ffffb3" stroke="black" points="306.42,-122 165.58,-122 165.58,-86 306.42,-86 306.42,-122"/>
<text text-anchor="middle" x="236" y="-99.8" font-family="Times,serif" font-size="14.00">NewsCardComponent</text>
</g>
<!-- NewsCardComponent&#45;&gt;SharedModule -->
<g id="edge4" class="edge">
<title>NewsCardComponent&#45;&gt;SharedModule</title>
<path fill="none" stroke="black" d="M274.12,-122.01C274.12,-138.05 274.12,-159 274.12,-159 274.12,-159 399.46,-159 399.46,-159"/>
<polygon fill="black" stroke="black" points="399.46,-162.5 409.46,-159 399.46,-155.5 399.46,-162.5"/>
</g>
<!-- SidebarComponent -->
<g id="node5" class="node">
<title>SidebarComponent</title>
<polygon fill="#ffffb3" stroke="black" points="148.1,-122 23.9,-122 23.9,-86 148.1,-86 148.1,-122"/>
<text text-anchor="middle" x="86" y="-99.8" font-family="Times,serif" font-size="14.00">SidebarComponent</text>
</g>
<!-- SidebarComponent&#45;&gt;SharedModule -->
<g id="edge5" class="edge">
<title>SidebarComponent&#45;&gt;SharedModule</title>
<path fill="none" stroke="black" d="M122.12,-122.27C122.12,-140.56 122.12,-166 122.12,-166 122.12,-166 399.65,-166 399.65,-166"/>
<polygon fill="black" stroke="black" points="399.65,-169.5 409.65,-166 399.65,-162.5 399.65,-169.5"/>
</g>
<!-- HeaderComponent  -->
<g id="node8" class="node">
<title>HeaderComponent </title>
<polygon fill="#fb8072" stroke="black" points="806.74,-252 681.26,-252 681.26,-216 806.74,-216 806.74,-252"/>
<text text-anchor="middle" x="744" y="-229.8" font-family="Times,serif" font-size="14.00">HeaderComponent </text>
</g>
<!-- SharedModule&#45;&gt;HeaderComponent  -->
<g id="edge7" class="edge">
<title>SharedModule&#45;&gt;HeaderComponent </title>
<path fill="none" stroke="black" stroke-dasharray="5,2" d="M508.31,-173C588.08,-173 736.59,-173 736.59,-173 736.59,-173 736.59,-205.7 736.59,-205.7"/>
<polygon fill="black" stroke="black" points="733.09,-205.7 736.59,-215.7 740.09,-205.7 733.09,-205.7"/>
</g>
<!-- LoadingComponent  -->
<g id="node9" class="node">
<title>LoadingComponent </title>
<polygon fill="#fb8072" stroke="black" points="663.99,-252 532.01,-252 532.01,-216 663.99,-216 663.99,-252"/>
<text text-anchor="middle" x="598" y="-229.8" font-family="Times,serif" font-size="14.00">LoadingComponent </text>
</g>
<!-- SharedModule&#45;&gt;LoadingComponent  -->
<g id="edge8" class="edge">
<title>SharedModule&#45;&gt;LoadingComponent </title>
<path fill="none" stroke="black" stroke-dasharray="5,2" d="M508.42,-180C534.87,-180 562.06,-180 562.06,-180 562.06,-180 562.06,-205.72 562.06,-205.72"/>
<polygon fill="black" stroke="black" points="558.56,-205.72 562.06,-215.72 565.56,-205.72 558.56,-205.72"/>
</g>
<!-- MaterialModule  -->
<g id="node10" class="node">
<title>MaterialModule </title>
<polygon fill="#fb8072" stroke="black" points="514.47,-252 403.53,-252 403.53,-216 514.47,-216 514.47,-252"/>
<text text-anchor="middle" x="459" y="-229.8" font-family="Times,serif" font-size="14.00">MaterialModule </text>
</g>
<!-- SharedModule&#45;&gt;MaterialModule  -->
<g id="edge9" class="edge">
<title>SharedModule&#45;&gt;MaterialModule </title>
<path fill="none" stroke="black" stroke-dasharray="5,2" d="M459,-187.11C459,-187.11 459,-205.99 459,-205.99"/>
<polygon fill="black" stroke="black" points="455.5,-205.99 459,-215.99 462.5,-205.99 455.5,-205.99"/>
</g>
<!-- NewsCardComponent  -->
<g id="node11" class="node">
<title>NewsCardComponent </title>
<polygon fill="#fb8072" stroke="black" points="385.92,-252 242.08,-252 242.08,-216 385.92,-216 385.92,-252"/>
<text text-anchor="middle" x="314" y="-229.8" font-family="Times,serif" font-size="14.00">NewsCardComponent </text>
</g>
<!-- SharedModule&#45;&gt;NewsCardComponent  -->
<g id="edge10" class="edge">
<title>SharedModule&#45;&gt;NewsCardComponent </title>
<path fill="none" stroke="black" stroke-dasharray="5,2" d="M409.73,-180C382.85,-180 354.98,-180 354.98,-180 354.98,-180 354.98,-205.72 354.98,-205.72"/>
<polygon fill="black" stroke="black" points="351.48,-205.72 354.98,-215.72 358.48,-205.72 351.48,-205.72"/>
</g>
<!-- SidebarComponent  -->
<g id="node12" class="node">
<title>SidebarComponent </title>
<polygon fill="#fb8072" stroke="black" points="223.6,-252 96.4,-252 96.4,-216 223.6,-216 223.6,-252"/>
<text text-anchor="middle" x="160" y="-229.8" font-family="Times,serif" font-size="14.00">SidebarComponent </text>
</g>
<!-- SharedModule&#45;&gt;SidebarComponent  -->
<g id="edge11" class="edge">
<title>SharedModule&#45;&gt;SidebarComponent </title>
<path fill="none" stroke="black" stroke-dasharray="5,2" d="M409.61,-173C333.14,-173 194.79,-173 194.79,-173 194.79,-173 194.79,-205.7 194.79,-205.7"/>
<polygon fill="black" stroke="black" points="191.29,-205.7 194.79,-215.7 198.29,-205.7 191.29,-205.7"/>
</g>
<!-- MaterialModule -->
<g id="node7" class="node">
<title>MaterialModule</title>
<polygon fill="#8dd3c7" stroke="black" points="922.47,-122 919.47,-126 898.47,-126 895.47,-122 815.53,-122 815.53,-86 922.47,-86 922.47,-122"/>
<text text-anchor="middle" x="869" y="-99.8" font-family="Times,serif" font-size="14.00">MaterialModule</text>
</g>
<!-- MaterialModule&#45;&gt;SharedModule -->
<g id="edge6" class="edge">
<title>MaterialModule&#45;&gt;SharedModule</title>
<path fill="none" stroke="black" d="M869,-122.27C869,-140.56 869,-166 869,-166 869,-166 518.46,-166 518.46,-166"/>
<polygon fill="black" stroke="black" points="518.46,-162.5 508.46,-166 518.46,-169.5 518.46,-162.5"/>
</g>
</g>
</svg>
