<?xml version="1.0" encoding="UTF-8" standalone="no"?>
<!DOCTYPE svg PUBLIC "-//W3C//DTD SVG 1.1//EN"
 "http://www.w3.org/Graphics/SVG/1.1/DTD/svg11.dtd">
<!-- Generated by graphviz version 2.47.3 (20210619.1520)
 -->
<!-- Title: dependencies Pages: 1 -->
<svg width="2092pt" height="258pt"
 viewBox="0.00 0.00 2092.00 257.80" xmlns="http://www.w3.org/2000/svg" xmlns:xlink="http://www.w3.org/1999/xlink">
<g id="graph0" class="graph" transform="scale(1 1) rotate(0) translate(4 253.8)">
<title>dependencies</title>
<polygon fill="white" stroke="transparent" points="-4,4 -4,-253.8 2088,-253.8 2088,4 -4,4"/>
<text text-anchor="middle" x="1042" y="-8.2" font-family="sans-serif" font-size="14.00">dependencies</text>
<g id="clust1" class="cluster">
<title>cluster_AppModule</title>
<polygon fill="none" stroke="black" stroke-dasharray="1,5" points="8,-32.8 8,-241.8 403,-241.8 403,-32.8 8,-32.8"/>
</g>
<g id="clust2" class="cluster">
<title>cluster_AppModule_declarations</title>
<polygon fill="none" stroke="black" points="273,-40.8 273,-92.8 395,-92.8 395,-40.8 273,-40.8"/>
</g>
<g id="clust4" class="cluster">
<title>cluster_AppModule_imports</title>
<polygon fill="none" stroke="black" points="16,-40.8 16,-92.8 265,-92.8 265,-40.8 16,-40.8"/>
</g>
<g id="clust6" class="cluster">
<title>cluster_AppModule_bootstrap</title>
<polygon fill="none" stroke="black" points="131,-181.8 131,-233.8 255,-233.8 255,-181.8 131,-181.8"/>
</g>
<g id="clust20" class="cluster">
<title>cluster_HomepageModule</title>
<polygon fill="none" stroke="black" stroke-dasharray="1,5" points="1150,-108.8 1150,-233.8 1630,-233.8 1630,-108.8 1150,-108.8"/>
</g>
<g id="clust21" class="cluster">
<title>cluster_HomepageModule_declarations</title>
<polygon fill="none" stroke="black" points="1464,-116.8 1464,-168.8 1622,-168.8 1622,-116.8 1464,-116.8"/>
</g>
<g id="clust23" class="cluster">
<title>cluster_HomepageModule_imports</title>
<polygon fill="none" stroke="black" points="1158,-116.8 1158,-168.8 1456,-168.8 1456,-116.8 1158,-116.8"/>
</g>
<g id="clust39" class="cluster">
<title>cluster_SharedModule</title>
<polygon fill="none" stroke="black" stroke-dasharray="1,5" points="411,-32.8 411,-100.8 2076,-100.8 2076,-32.8 411,-32.8"/>
</g>
<g id="clust40" class="cluster">
<title>cluster_SharedModule_declarations</title>
<polygon fill="none" stroke="black" points="1284,-40.8 1284,-92.8 2068,-92.8 2068,-40.8 1284,-40.8"/>
</g>
<g id="clust46" class="cluster">
<title>cluster_SharedModule_imports</title>
<polygon fill="none" stroke="black" points="1154,-40.8 1154,-92.8 1276,-92.8 1276,-40.8 1154,-40.8"/>
</g>
<g id="clust47" class="cluster">
<title>cluster_SharedModule_exports</title>
<polygon fill="none" stroke="black" points="419,-40.8 419,-92.8 1146,-92.8 1146,-40.8 419,-40.8"/>
</g>
<!-- AppComponent -->
<g id="node1" class="node">
<title>AppComponent</title>
<polygon fill="#ffffb3" stroke="black" points="386.94,-84.8 281.06,-84.8 281.06,-48.8 386.94,-48.8 386.94,-84.8"/>
<text text-anchor="middle" x="334" y="-62.6" font-family="Times,serif" font-size="14.00">AppComponent</text>
</g>
<!-- AppModule -->
<g id="node2" class="node">
<title>AppModule</title>
<polygon fill="#8dd3c7" stroke="black" points="234.66,-160.8 231.66,-164.8 210.66,-164.8 207.66,-160.8 151.34,-160.8 151.34,-124.8 234.66,-124.8 234.66,-160.8"/>
<text text-anchor="middle" x="193" y="-138.6" font-family="Times,serif" font-size="14.00">AppModule</text>
</g>
<!-- AppComponent&#45;&gt;AppModule -->
<g id="edge1" class="edge">
<title>AppComponent&#45;&gt;AppModule</title>
<path fill="none" stroke="black" d="M334,-84.97C334,-103.89 334,-130.8 334,-130.8 334,-130.8 244.92,-130.8 244.92,-130.8"/>
<polygon fill="black" stroke="black" points="244.92,-127.3 234.92,-130.8 244.92,-134.3 244.92,-127.3"/>
</g>
<!-- AppComponent  -->
<g id="node5" class="node">
<title>AppComponent </title>
<polygon fill="#80b1d3" stroke="black" points="247.44,-225.8 138.56,-225.8 138.56,-189.8 247.44,-189.8 247.44,-225.8"/>
<text text-anchor="middle" x="193" y="-203.6" font-family="Times,serif" font-size="14.00">AppComponent </text>
</g>
<!-- AppModule&#45;&gt;AppComponent  -->
<g id="edge4" class="edge">
<title>AppModule&#45;&gt;AppComponent </title>
<path fill="none" stroke="black" stroke-dasharray="1,5" d="M193,-160.91C193,-160.91 193,-179.79 193,-179.79"/>
<polygon fill="black" stroke="black" points="189.5,-179.79 193,-189.79 196.5,-179.79 189.5,-179.79"/>
</g>
<!-- AppRoutingModule -->
<g id="node3" class="node">
<title>AppRoutingModule</title>
<polygon fill="#8dd3c7" stroke="black" points="257.27,-84.8 254.27,-88.8 233.27,-88.8 230.27,-84.8 128.73,-84.8 128.73,-48.8 257.27,-48.8 257.27,-84.8"/>
<text text-anchor="middle" x="193" y="-62.6" font-family="Times,serif" font-size="14.00">AppRoutingModule</text>
</g>
<!-- AppRoutingModule&#45;&gt;AppModule -->
<g id="edge2" class="edge">
<title>AppRoutingModule&#45;&gt;AppModule</title>
<path fill="none" stroke="black" d="M193,-84.81C193,-84.81 193,-114.65 193,-114.65"/>
<polygon fill="black" stroke="black" points="189.5,-114.65 193,-124.65 196.5,-114.65 189.5,-114.65"/>
</g>
<!-- CoreModule -->
<g id="node4" class="node">
<title>CoreModule</title>
<polygon fill="#8dd3c7" stroke="black" points="110.26,-84.8 107.26,-88.8 86.26,-88.8 83.26,-84.8 23.74,-84.8 23.74,-48.8 110.26,-48.8 110.26,-84.8"/>
<text text-anchor="middle" x="67" y="-62.6" font-family="Times,serif" font-size="14.00">CoreModule</text>
</g>
<!-- CoreModule&#45;&gt;AppModule -->
<g id="edge3" class="edge">
<title>CoreModule&#45;&gt;AppModule</title>
<path fill="none" stroke="black" d="M67,-84.81C67,-107.29 67,-142.8 67,-142.8 67,-142.8 141.04,-142.8 141.04,-142.8"/>
<polygon fill="black" stroke="black" points="141.04,-146.3 151.04,-142.8 141.04,-139.3 141.04,-146.3"/>
</g>
<!-- HomepageComponent -->
<g id="node6" class="node">
<title>HomepageComponent</title>
<polygon fill="#ffffb3" stroke="black" points="1613.97,-160.8 1472.03,-160.8 1472.03,-124.8 1613.97,-124.8 1613.97,-160.8"/>
<text text-anchor="middle" x="1543" y="-138.6" font-family="Times,serif" font-size="14.00">HomepageComponent</text>
</g>
<!-- HomepageModule -->
<g id="node7" class="node">
<title>HomepageModule</title>
<polygon fill="#8dd3c7" stroke="black" points="1425.19,-225.8 1422.19,-229.8 1401.19,-229.8 1398.19,-225.8 1304.81,-225.8 1304.81,-189.8 1425.19,-189.8 1425.19,-225.8"/>
<text text-anchor="middle" x="1365" y="-203.6" font-family="Times,serif" font-size="14.00">HomepageModule</text>
</g>
<!-- HomepageComponent&#45;&gt;HomepageModule -->
<g id="edge5" class="edge">
<title>HomepageComponent&#45;&gt;HomepageModule</title>
<path fill="none" stroke="black" d="M1543,-160.91C1543,-180.14 1543,-207.8 1543,-207.8 1543,-207.8 1435.26,-207.8 1435.26,-207.8"/>
<polygon fill="black" stroke="black" points="1435.26,-204.3 1425.26,-207.8 1435.26,-211.3 1435.26,-204.3"/>
</g>
<!-- HomepageRoutingModule -->
<g id="node8" class="node">
<title>HomepageRoutingModule</title>
<polygon fill="#8dd3c7" stroke="black" points="1447.81,-160.8 1444.81,-164.8 1423.81,-164.8 1420.81,-160.8 1282.19,-160.8 1282.19,-124.8 1447.81,-124.8 1447.81,-160.8"/>
<text text-anchor="middle" x="1365" y="-138.6" font-family="Times,serif" font-size="14.00">HomepageRoutingModule</text>
</g>
<!-- HomepageRoutingModule&#45;&gt;HomepageModule -->
<g id="edge6" class="edge">
<title>HomepageRoutingModule&#45;&gt;HomepageModule</title>
<path fill="none" stroke="black" d="M1365,-160.91C1365,-160.91 1365,-179.79 1365,-179.79"/>
<polygon fill="black" stroke="black" points="1361.5,-179.79 1365,-189.79 1368.5,-179.79 1361.5,-179.79"/>
</g>
<!-- SharedModule -->
<g id="node9" class="node">
<title>SharedModule</title>
<polygon fill="#8dd3c7" stroke="black" points="1264.42,-160.8 1261.42,-164.8 1240.42,-164.8 1237.42,-160.8 1165.58,-160.8 1165.58,-124.8 1264.42,-124.8 1264.42,-160.8"/>
<text text-anchor="middle" x="1215" y="-138.6" font-family="Times,serif" font-size="14.00">SharedModule</text>
</g>
<!-- SharedModule&#45;&gt;HomepageModule -->
<g id="edge7" class="edge">
<title>SharedModule&#45;&gt;HomepageModule</title>
<path fill="none" stroke="black" d="M1215,-160.91C1215,-180.14 1215,-207.8 1215,-207.8 1215,-207.8 1294.85,-207.8 1294.85,-207.8"/>
<polygon fill="black" stroke="black" points="1294.85,-211.3 1304.85,-207.8 1294.85,-204.3 1294.85,-211.3"/>
</g>
<!-- HeaderComponent  -->
<g id="node16" class="node">
<title>HeaderComponent </title>
<polygon fill="#fb8072" stroke="black" points="1137.74,-84.8 1012.26,-84.8 1012.26,-48.8 1137.74,-48.8 1137.74,-84.8"/>
<text text-anchor="middle" x="1075" y="-62.6" font-family="Times,serif" font-size="14.00">HeaderComponent </text>
</g>
<!-- SharedModule&#45;&gt;HeaderComponent  -->
<g id="edge14" class="edge">
<title>SharedModule&#45;&gt;HeaderComponent </title>
<path fill="none" stroke="black" stroke-dasharray="5,2" d="M1165.64,-135.8C1125.33,-135.8 1075,-135.8 1075,-135.8 1075,-135.8 1075,-94.93 1075,-94.93"/>
<polygon fill="black" stroke="black" points="1078.5,-94.93 1075,-84.93 1071.5,-94.93 1078.5,-94.93"/>
</g>
<!-- LoadingComponent  -->
<g id="node17" class="node">
<title>LoadingComponent </title>
<polygon fill="#fb8072" stroke="black" points="994.99,-84.8 863.01,-84.8 863.01,-48.8 994.99,-48.8 994.99,-84.8"/>
<text text-anchor="middle" x="929" y="-62.6" font-family="Times,serif" font-size="14.00">LoadingComponent </text>
</g>
<!-- SharedModule&#45;&gt;LoadingComponent  -->
<g id="edge15" class="edge">
<title>SharedModule&#45;&gt;LoadingComponent </title>
<path fill="none" stroke="black" stroke-dasharray="5,2" d="M1165.51,-140.8C1083.65,-140.8 929,-140.8 929,-140.8 929,-140.8 929,-95.09 929,-95.09"/>
<polygon fill="black" stroke="black" points="932.5,-95.09 929,-85.09 925.5,-95.09 932.5,-95.09"/>
</g>
<!-- MaterialModule  -->
<g id="node18" class="node">
<title>MaterialModule </title>
<polygon fill="#fb8072" stroke="black" points="845.47,-84.8 734.53,-84.8 734.53,-48.8 845.47,-48.8 845.47,-84.8"/>
<text text-anchor="middle" x="790" y="-62.6" font-family="Times,serif" font-size="14.00">MaterialModule </text>
</g>
<!-- SharedModule&#45;&gt;MaterialModule  -->
<g id="edge16" class="edge">
<title>SharedModule&#45;&gt;MaterialModule </title>
<path fill="none" stroke="black" stroke-dasharray="5,2" d="M1165.42,-145.8C1053.3,-145.8 790,-145.8 790,-145.8 790,-145.8 790,-95.12 790,-95.12"/>
<polygon fill="black" stroke="black" points="793.5,-95.12 790,-85.12 786.5,-95.12 793.5,-95.12"/>
</g>
<!-- NewsCardComponent  -->
<g id="node19" class="node">
<title>NewsCardComponent </title>
<polygon fill="#fb8072" stroke="black" points="716.92,-84.8 573.08,-84.8 573.08,-48.8 716.92,-48.8 716.92,-84.8"/>
<text text-anchor="middle" x="645" y="-62.6" font-family="Times,serif" font-size="14.00">NewsCardComponent </text>
</g>
<!-- SharedModule&#45;&gt;NewsCardComponent  -->
<g id="edge17" class="edge">
<title>SharedModule&#45;&gt;NewsCardComponent </title>
<path fill="none" stroke="black" stroke-dasharray="5,2" d="M1165.41,-150.8C1026.74,-150.8 645,-150.8 645,-150.8 645,-150.8 645,-95.03 645,-95.03"/>
<polygon fill="black" stroke="black" points="648.5,-95.03 645,-85.03 641.5,-95.03 648.5,-95.03"/>
</g>
<!-- SidebarComponent  -->
<g id="node20" class="node">
<title>SidebarComponent </title>
<polygon fill="#fb8072" stroke="black" points="554.6,-84.8 427.4,-84.8 427.4,-48.8 554.6,-48.8 554.6,-84.8"/>
<text text-anchor="middle" x="491" y="-62.6" font-family="Times,serif" font-size="14.00">SidebarComponent </text>
</g>
<!-- SharedModule&#45;&gt;SidebarComponent  -->
<g id="edge18" class="edge">
<title>SharedModule&#45;&gt;SidebarComponent </title>
<path fill="none" stroke="black" stroke-dasharray="5,2" d="M1165.52,-155.8C1002.26,-155.8 491,-155.8 491,-155.8 491,-155.8 491,-94.81 491,-94.81"/>
<polygon fill="black" stroke="black" points="494.5,-94.81 491,-84.81 487.5,-94.81 494.5,-94.81"/>
</g>
<!-- CustomizePaginatorDirective -->
<g id="node10" class="node">
<title>CustomizePaginatorDirective</title>
<polygon fill="#ffffb3" stroke="black" points="2059.62,-84.8 1878.38,-84.8 1878.38,-48.8 2059.62,-48.8 2059.62,-84.8"/>
<text text-anchor="middle" x="1969" y="-62.6" font-family="Times,serif" font-size="14.00">CustomizePaginatorDirective</text>
</g>
<!-- CustomizePaginatorDirective&#45;&gt;SharedModule -->
<g id="edge8" class="edge">
<title>CustomizePaginatorDirective&#45;&gt;SharedModule</title>
<path fill="none" stroke="black" d="M1969,-84.85C1969,-99.17 1969,-116.8 1969,-116.8 1969,-116.8 1247.81,-116.8 1247.81,-116.8 1247.81,-116.8 1247.81,-117.59 1247.81,-117.59"/>
<polygon fill="black" stroke="black" points="1244.31,-114.74 1247.81,-124.74 1251.31,-114.74 1244.31,-114.74"/>
</g>
<!-- HeaderComponent -->
<g id="node11" class="node">
<title>HeaderComponent</title>
<polygon fill="#ffffb3" stroke="black" points="1859.74,-84.8 1738.26,-84.8 1738.26,-48.8 1859.74,-48.8 1859.74,-84.8"/>
<text text-anchor="middle" x="1799" y="-62.6" font-family="Times,serif" font-size="14.00">HeaderComponent</text>
</g>
<!-- HeaderComponent&#45;&gt;SharedModule -->
<g id="edge9" class="edge">
<title>HeaderComponent&#45;&gt;SharedModule</title>
<path fill="none" stroke="black" d="M1799,-84.86C1799,-96.24 1799,-108.8 1799,-108.8 1799,-108.8 1231.4,-108.8 1231.4,-108.8 1231.4,-108.8 1231.4,-114.61 1231.4,-114.61"/>
<polygon fill="black" stroke="black" points="1227.9,-114.61 1231.4,-124.61 1234.9,-114.61 1227.9,-114.61"/>
</g>
<!-- LoadingComponent -->
<g id="node12" class="node">
<title>LoadingComponent</title>
<polygon fill="#ffffb3" stroke="black" points="1719.99,-84.8 1592.01,-84.8 1592.01,-48.8 1719.99,-48.8 1719.99,-84.8"/>
<text text-anchor="middle" x="1656" y="-62.6" font-family="Times,serif" font-size="14.00">LoadingComponent</text>
</g>
<!-- LoadingComponent&#45;&gt;SharedModule -->
<g id="edge10" class="edge">
<title>LoadingComponent&#45;&gt;SharedModule</title>
<path fill="none" stroke="black" d="M1603,-84.99C1603,-93.08 1603,-100.8 1603,-100.8 1603,-100.8 1215,-100.8 1215,-100.8 1215,-100.8 1215,-114.74 1215,-114.74"/>
<polygon fill="black" stroke="black" points="1211.5,-114.74 1215,-124.74 1218.5,-114.74 1211.5,-114.74"/>
</g>
<!-- NewsCardComponent -->
<g id="node13" class="node">
<title>NewsCardComponent</title>
<polygon fill="#ffffb3" stroke="black" points="1574.42,-84.8 1433.58,-84.8 1433.58,-48.8 1574.42,-48.8 1574.42,-84.8"/>
<text text-anchor="middle" x="1504" y="-62.6" font-family="Times,serif" font-size="14.00">NewsCardComponent</text>
</g>
<!-- NewsCardComponent&#45;&gt;SharedModule -->
<g id="edge11" class="edge">
<title>NewsCardComponent&#45;&gt;SharedModule</title>
<path fill="none" stroke="black" d="M1440.72,-84.86C1440.72,-89.29 1440.72,-92.8 1440.72,-92.8 1440.72,-92.8 1198.6,-92.8 1198.6,-92.8 1198.6,-92.8 1198.6,-114.75 1198.6,-114.75"/>
<polygon fill="black" stroke="black" points="1195.1,-114.75 1198.6,-124.75 1202.1,-114.75 1195.1,-114.75"/>
</g>
<!-- SidebarComponent -->
<g id="node14" class="node">
<title>SidebarComponent</title>
<polygon fill="#ffffb3" stroke="black" points="1416.1,-84.8 1291.9,-84.8 1291.9,-48.8 1416.1,-48.8 1416.1,-84.8"/>
<text text-anchor="middle" x="1354" y="-62.6" font-family="Times,serif" font-size="14.00">SidebarComponent</text>
</g>
<!-- SidebarComponent&#45;&gt;SharedModule -->
<g id="edge12" class="edge">
<title>SidebarComponent&#45;&gt;SharedModule</title>
<path fill="none" stroke="black" d="M1291.7,-66.8C1282.16,-66.8 1275.42,-66.8 1275.42,-66.8 1275.42,-66.8 1275.42,-142.8 1275.42,-142.8 1275.42,-142.8 1274.31,-142.8 1274.31,-142.8"/>
<polygon fill="black" stroke="black" points="1274.33,-139.3 1264.33,-142.8 1274.33,-146.3 1274.33,-139.3"/>
</g>
<!-- MaterialModule -->
<g id="node15" class="node">
<title>MaterialModule</title>
<polygon fill="#8dd3c7" stroke="black" points="1268.47,-84.8 1265.47,-88.8 1244.47,-88.8 1241.47,-84.8 1161.53,-84.8 1161.53,-48.8 1268.47,-48.8 1268.47,-84.8"/>
<text text-anchor="middle" x="1215" y="-62.6" font-family="Times,serif" font-size="14.00">MaterialModule</text>
</g>
<!-- MaterialModule&#45;&gt;SharedModule -->
<g id="edge13" class="edge">
<title>MaterialModule&#45;&gt;SharedModule</title>
<path fill="none" stroke="black" d="M1182.19,-84.81C1182.19,-84.81 1182.19,-114.65 1182.19,-114.65"/>
<polygon fill="black" stroke="black" points="1178.69,-114.65 1182.19,-124.65 1185.69,-114.65 1178.69,-114.65"/>
</g>
</g>
</svg>
