<?xml version="1.0" encoding="UTF-8" standalone="no"?>
<!DOCTYPE svg PUBLIC "-//W3C//DTD SVG 1.1//EN"
 "http://www.w3.org/Graphics/SVG/1.1/DTD/svg11.dtd">
<!-- Generated by graphviz version 2.44.1 (20200629.0846)
 -->
<!-- Title: dependencies Pages: 1 -->
<svg width="2092pt" height="295pt"
 viewBox="0.00 0.00 2092.00 295.00" xmlns="http://www.w3.org/2000/svg" xmlns:xlink="http://www.w3.org/1999/xlink">
<g id="graph0" class="graph" transform="scale(1 1) rotate(0) translate(4 291)">
<title>dependencies</title>
<polygon fill="white" stroke="transparent" points="-4,4 -4,-291 2088,-291 2088,4 -4,4"/>
<text text-anchor="start" x="1021.01" y="-42.4" font-family="sans-serif" font-weight="bold" font-size="14.00">Legend</text>
<polygon fill="#ffffb3" stroke="transparent" points="808,-10 808,-30 828,-30 828,-10 808,-10"/>
<text text-anchor="start" x="831.63" y="-15.4" font-family="sans-serif" font-size="14.00"> &#160;Declarations</text>
<polygon fill="#8dd3c7" stroke="transparent" points="921,-10 921,-30 941,-30 941,-10 921,-10"/>
<text text-anchor="start" x="944.73" y="-15.4" font-family="sans-serif" font-size="14.00"> &#160;Module</text>
<polygon fill="#80b1d3" stroke="transparent" points="1007,-10 1007,-30 1027,-30 1027,-10 1007,-10"/>
<text text-anchor="start" x="1030.78" y="-15.4" font-family="sans-serif" font-size="14.00"> &#160;Bootstrap</text>
<polygon fill="#fdb462" stroke="transparent" points="1104,-10 1104,-30 1124,-30 1124,-10 1104,-10"/>
<text text-anchor="start" x="1127.67" y="-15.4" font-family="sans-serif" font-size="14.00"> &#160;Providers</text>
<polygon fill="#fb8072" stroke="transparent" points="1200,-10 1200,-30 1220,-30 1220,-10 1200,-10"/>
<text text-anchor="start" x="1223.73" y="-15.4" font-family="sans-serif" font-size="14.00"> &#160;Exports</text>
<g id="clust1" class="cluster">
<title>cluster_AppModule</title>
<polygon fill="none" stroke="black" stroke-dasharray="1,5" points="8,-70 8,-279 403,-279 403,-70 8,-70"/>
</g>
<g id="clust2" class="cluster">
<title>cluster_AppModule_declarations</title>
<polygon fill="none" stroke="black" points="273,-78 273,-130 395,-130 395,-78 273,-78"/>
</g>
<g id="clust4" class="cluster">
<title>cluster_AppModule_imports</title>
<polygon fill="none" stroke="black" points="16,-78 16,-130 265,-130 265,-78 16,-78"/>
</g>
<g id="clust6" class="cluster">
<title>cluster_AppModule_bootstrap</title>
<polygon fill="none" stroke="black" points="131,-219 131,-271 255,-271 255,-219 131,-219"/>
</g>
<g id="clust20" class="cluster">
<title>cluster_HomepageModule</title>
<polygon fill="none" stroke="black" stroke-dasharray="1,5" points="1150,-146 1150,-271 1630,-271 1630,-146 1150,-146"/>
</g>
<g id="clust21" class="cluster">
<title>cluster_HomepageModule_declarations</title>
<polygon fill="none" stroke="black" points="1464,-154 1464,-206 1622,-206 1622,-154 1464,-154"/>
</g>
<g id="clust23" class="cluster">
<title>cluster_HomepageModule_imports</title>
<polygon fill="none" stroke="black" points="1158,-154 1158,-206 1456,-206 1456,-154 1158,-154"/>
</g>
<g id="clust39" class="cluster">
<title>cluster_SharedModule</title>
<polygon fill="none" stroke="black" stroke-dasharray="1,5" points="411,-70 411,-138 2076,-138 2076,-70 411,-70"/>
</g>
<g id="clust40" class="cluster">
<title>cluster_SharedModule_declarations</title>
<polygon fill="none" stroke="black" points="1284,-78 1284,-130 2068,-130 2068,-78 1284,-78"/>
</g>
<g id="clust46" class="cluster">
<title>cluster_SharedModule_imports</title>
<polygon fill="none" stroke="black" points="1154,-78 1154,-130 1276,-130 1276,-78 1154,-78"/>
</g>
<g id="clust47" class="cluster">
<title>cluster_SharedModule_exports</title>
<polygon fill="none" stroke="black" points="419,-78 419,-130 1146,-130 1146,-78 419,-78"/>
</g>
<!-- AppComponent -->
<g id="node1" class="node">
<title>AppComponent</title>
<polygon fill="#ffffb3" stroke="black" points="386.94,-122 281.06,-122 281.06,-86 386.94,-86 386.94,-122"/>
<text text-anchor="middle" x="334" y="-99.8" font-family="Times,serif" font-size="14.00">AppComponent</text>
</g>
<!-- AppModule -->
<g id="node2" class="node">
<title>AppModule</title>
<polygon fill="#8dd3c7" stroke="black" points="234.66,-198 231.66,-202 210.66,-202 207.66,-198 151.34,-198 151.34,-162 234.66,-162 234.66,-198"/>
<text text-anchor="middle" x="193" y="-175.8" font-family="Times,serif" font-size="14.00">AppModule</text>
</g>
<!-- AppComponent&#45;&gt;AppModule -->
<g id="edge1" class="edge">
<title>AppComponent&#45;&gt;AppModule</title>
<path fill="none" stroke="black" d="M334,-122.17C334,-141.09 334,-168 334,-168 334,-168 244.92,-168 244.92,-168"/>
<polygon fill="black" stroke="black" points="244.92,-164.5 234.92,-168 244.92,-171.5 244.92,-164.5"/>
</g>
<!-- AppComponent  -->
<g id="node5" class="node">
<title>AppComponent </title>
<polygon fill="#80b1d3" stroke="black" points="247.44,-263 138.56,-263 138.56,-227 247.44,-227 247.44,-263"/>
<text text-anchor="middle" x="193" y="-240.8" font-family="Times,serif" font-size="14.00">AppComponent </text>
</g>
<!-- AppModule&#45;&gt;AppComponent  -->
<g id="edge4" class="edge">
<title>AppModule&#45;&gt;AppComponent </title>
<path fill="none" stroke="black" stroke-dasharray="1,5" d="M193,-198.11C193,-198.11 193,-216.99 193,-216.99"/>
<polygon fill="black" stroke="black" points="189.5,-216.99 193,-226.99 196.5,-216.99 189.5,-216.99"/>
</g>
<!-- AppRoutingModule -->
<g id="node3" class="node">
<title>AppRoutingModule</title>
<polygon fill="#8dd3c7" stroke="black" points="257.27,-122 254.27,-126 233.27,-126 230.27,-122 128.73,-122 128.73,-86 257.27,-86 257.27,-122"/>
<text text-anchor="middle" x="193" y="-99.8" font-family="Times,serif" font-size="14.00">AppRoutingModule</text>
</g>
<!-- AppRoutingModule&#45;&gt;AppModule -->
<g id="edge2" class="edge">
<title>AppRoutingModule&#45;&gt;AppModule</title>
<path fill="none" stroke="black" d="M193,-122.01C193,-122.01 193,-151.85 193,-151.85"/>
<polygon fill="black" stroke="black" points="189.5,-151.85 193,-161.85 196.5,-151.85 189.5,-151.85"/>
</g>
<!-- CoreModule -->
<g id="node4" class="node">
<title>CoreModule</title>
<polygon fill="#8dd3c7" stroke="black" points="110.26,-122 107.26,-126 86.26,-126 83.26,-122 23.74,-122 23.74,-86 110.26,-86 110.26,-122"/>
<text text-anchor="middle" x="67" y="-99.8" font-family="Times,serif" font-size="14.00">CoreModule</text>
</g>
<!-- CoreModule&#45;&gt;AppModule -->
<g id="edge3" class="edge">
<title>CoreModule&#45;&gt;AppModule</title>
<path fill="none" stroke="black" d="M67,-122.01C67,-144.49 67,-180 67,-180 67,-180 141.04,-180 141.04,-180"/>
<polygon fill="black" stroke="black" points="141.04,-183.5 151.04,-180 141.04,-176.5 141.04,-183.5"/>
</g>
<!-- HomepageComponent -->
<g id="node6" class="node">
<title>HomepageComponent</title>
<polygon fill="#ffffb3" stroke="black" points="1613.97,-198 1472.03,-198 1472.03,-162 1613.97,-162 1613.97,-198"/>
<text text-anchor="middle" x="1543" y="-175.8" font-family="Times,serif" font-size="14.00">HomepageComponent</text>
</g>
<!-- HomepageModule -->
<g id="node7" class="node">
<title>HomepageModule</title>
<polygon fill="#8dd3c7" stroke="black" points="1425.19,-263 1422.19,-267 1401.19,-267 1398.19,-263 1304.81,-263 1304.81,-227 1425.19,-227 1425.19,-263"/>
<text text-anchor="middle" x="1365" y="-240.8" font-family="Times,serif" font-size="14.00">HomepageModule</text>
</g>
<!-- HomepageComponent&#45;&gt;HomepageModule -->
<g id="edge5" class="edge">
<title>HomepageComponent&#45;&gt;HomepageModule</title>
<path fill="none" stroke="black" d="M1543,-198.11C1543,-217.34 1543,-245 1543,-245 1543,-245 1435.26,-245 1435.26,-245"/>
<polygon fill="black" stroke="black" points="1435.26,-241.5 1425.26,-245 1435.26,-248.5 1435.26,-241.5"/>
</g>
<!-- HomepageRoutingModule -->
<g id="node8" class="node">
<title>HomepageRoutingModule</title>
<polygon fill="#8dd3c7" stroke="black" points="1447.81,-198 1444.81,-202 1423.81,-202 1420.81,-198 1282.19,-198 1282.19,-162 1447.81,-162 1447.81,-198"/>
<text text-anchor="middle" x="1365" y="-175.8" font-family="Times,serif" font-size="14.00">HomepageRoutingModule</text>
</g>
<!-- HomepageRoutingModule&#45;&gt;HomepageModule -->
<g id="edge6" class="edge">
<title>HomepageRoutingModule&#45;&gt;HomepageModule</title>
<path fill="none" stroke="black" d="M1365,-198.11C1365,-198.11 1365,-216.99 1365,-216.99"/>
<polygon fill="black" stroke="black" points="1361.5,-216.99 1365,-226.99 1368.5,-216.99 1361.5,-216.99"/>
</g>
<!-- SharedModule -->
<g id="node9" class="node">
<title>SharedModule</title>
<polygon fill="#8dd3c7" stroke="black" points="1264.42,-198 1261.42,-202 1240.42,-202 1237.42,-198 1165.58,-198 1165.58,-162 1264.42,-162 1264.42,-198"/>
<text text-anchor="middle" x="1215" y="-175.8" font-family="Times,serif" font-size="14.00">SharedModule</text>
</g>
<!-- SharedModule&#45;&gt;HomepageModule -->
<g id="edge7" class="edge">
<title>SharedModule&#45;&gt;HomepageModule</title>
<path fill="none" stroke="black" d="M1215,-198.11C1215,-217.34 1215,-245 1215,-245 1215,-245 1294.85,-245 1294.85,-245"/>
<polygon fill="black" stroke="black" points="1294.85,-248.5 1304.85,-245 1294.85,-241.5 1294.85,-248.5"/>
</g>
<!-- HeaderComponent  -->
<g id="node16" class="node">
<title>HeaderComponent </title>
<polygon fill="#fb8072" stroke="black" points="1137.74,-122 1012.26,-122 1012.26,-86 1137.74,-86 1137.74,-122"/>
<text text-anchor="middle" x="1075" y="-99.8" font-family="Times,serif" font-size="14.00">HeaderComponent </text>
</g>
<!-- SharedModule&#45;&gt;HeaderComponent  -->
<g id="edge14" class="edge">
<title>SharedModule&#45;&gt;HeaderComponent </title>
<path fill="none" stroke="black" stroke-dasharray="5,2" d="M1165.64,-173C1125.33,-173 1075,-173 1075,-173 1075,-173 1075,-132.13 1075,-132.13"/>
<polygon fill="black" stroke="black" points="1078.5,-132.13 1075,-122.13 1071.5,-132.13 1078.5,-132.13"/>
</g>
<!-- LoadingComponent  -->
<g id="node17" class="node">
<title>LoadingComponent </title>
<polygon fill="#fb8072" stroke="black" points="994.99,-122 863.01,-122 863.01,-86 994.99,-86 994.99,-122"/>
<text text-anchor="middle" x="929" y="-99.8" font-family="Times,serif" font-size="14.00">LoadingComponent </text>
</g>
<!-- SharedModule&#45;&gt;LoadingComponent  -->
<g id="edge15" class="edge">
<title>SharedModule&#45;&gt;LoadingComponent </title>
<path fill="none" stroke="black" stroke-dasharray="5,2" d="M1165.51,-178C1083.65,-178 929,-178 929,-178 929,-178 929,-132.29 929,-132.29"/>
<polygon fill="black" stroke="black" points="932.5,-132.29 929,-122.29 925.5,-132.29 932.5,-132.29"/>
</g>
<!-- MaterialModule  -->
<g id="node18" class="node">
<title>MaterialModule </title>
<polygon fill="#fb8072" stroke="black" points="845.47,-122 734.53,-122 734.53,-86 845.47,-86 845.47,-122"/>
<text text-anchor="middle" x="790" y="-99.8" font-family="Times,serif" font-size="14.00">MaterialModule </text>
</g>
<!-- SharedModule&#45;&gt;MaterialModule  -->
<g id="edge16" class="edge">
<title>SharedModule&#45;&gt;MaterialModule </title>
<path fill="none" stroke="black" stroke-dasharray="5,2" d="M1165.42,-183C1053.3,-183 790,-183 790,-183 790,-183 790,-132.32 790,-132.32"/>
<polygon fill="black" stroke="black" points="793.5,-132.32 790,-122.32 786.5,-132.32 793.5,-132.32"/>
</g>
<!-- NewsCardComponent  -->
<g id="node19" class="node">
<title>NewsCardComponent </title>
<polygon fill="#fb8072" stroke="black" points="716.92,-122 573.08,-122 573.08,-86 716.92,-86 716.92,-122"/>
<text text-anchor="middle" x="645" y="-99.8" font-family="Times,serif" font-size="14.00">NewsCardComponent </text>
</g>
<!-- SharedModule&#45;&gt;NewsCardComponent  -->
<g id="edge17" class="edge">
<title>SharedModule&#45;&gt;NewsCardComponent </title>
<path fill="none" stroke="black" stroke-dasharray="5,2" d="M1165.41,-188C1026.74,-188 645,-188 645,-188 645,-188 645,-132.23 645,-132.23"/>
<polygon fill="black" stroke="black" points="648.5,-132.23 645,-122.23 641.5,-132.23 648.5,-132.23"/>
</g>
<!-- SidebarComponent  -->
<g id="node20" class="node">
<title>SidebarComponent </title>
<polygon fill="#fb8072" stroke="black" points="554.6,-122 427.4,-122 427.4,-86 554.6,-86 554.6,-122"/>
<text text-anchor="middle" x="491" y="-99.8" font-family="Times,serif" font-size="14.00">SidebarComponent </text>
</g>
<!-- SharedModule&#45;&gt;SidebarComponent  -->
<g id="edge18" class="edge">
<title>SharedModule&#45;&gt;SidebarComponent </title>
<path fill="none" stroke="black" stroke-dasharray="5,2" d="M1165.52,-193C1002.26,-193 491,-193 491,-193 491,-193 491,-132.01 491,-132.01"/>
<polygon fill="black" stroke="black" points="494.5,-132.01 491,-122.01 487.5,-132.01 494.5,-132.01"/>
</g>
<!-- CustomizePaginatorDirective -->
<g id="node10" class="node">
<title>CustomizePaginatorDirective</title>
<polygon fill="#ffffb3" stroke="black" points="2059.62,-122 1878.38,-122 1878.38,-86 2059.62,-86 2059.62,-122"/>
<text text-anchor="middle" x="1969" y="-99.8" font-family="Times,serif" font-size="14.00">CustomizePaginatorDirective</text>
</g>
<!-- CustomizePaginatorDirective&#45;&gt;SharedModule -->
<g id="edge8" class="edge">
<title>CustomizePaginatorDirective&#45;&gt;SharedModule</title>
<path fill="none" stroke="black" d="M1969,-122.05C1969,-136.37 1969,-154 1969,-154 1969,-154 1247.81,-154 1247.81,-154 1247.81,-154 1247.81,-154.79 1247.81,-154.79"/>
<polygon fill="black" stroke="black" points="1244.31,-151.94 1247.81,-161.94 1251.31,-151.94 1244.31,-151.94"/>
</g>
<!-- HeaderComponent -->
<g id="node11" class="node">
<title>HeaderComponent</title>
<polygon fill="#ffffb3" stroke="black" points="1859.74,-122 1738.26,-122 1738.26,-86 1859.74,-86 1859.74,-122"/>
<text text-anchor="middle" x="1799" y="-99.8" font-family="Times,serif" font-size="14.00">HeaderComponent</text>
</g>
<!-- HeaderComponent&#45;&gt;SharedModule -->
<g id="edge9" class="edge">
<title>HeaderComponent&#45;&gt;SharedModule</title>
<path fill="none" stroke="black" d="M1799,-122.06C1799,-133.44 1799,-146 1799,-146 1799,-146 1231.4,-146 1231.4,-146 1231.4,-146 1231.4,-151.81 1231.4,-151.81"/>
<polygon fill="black" stroke="black" points="1227.9,-151.81 1231.4,-161.81 1234.9,-151.81 1227.9,-151.81"/>
</g>
<!-- LoadingComponent -->
<g id="node12" class="node">
<title>LoadingComponent</title>
<polygon fill="#ffffb3" stroke="black" points="1719.99,-122 1592.01,-122 1592.01,-86 1719.99,-86 1719.99,-122"/>
<text text-anchor="middle" x="1656" y="-99.8" font-family="Times,serif" font-size="14.00">LoadingComponent</text>
</g>
<!-- LoadingComponent&#45;&gt;SharedModule -->
<g id="edge10" class="edge">
<title>LoadingComponent&#45;&gt;SharedModule</title>
<path fill="none" stroke="black" d="M1603,-122.19C1603,-130.28 1603,-138 1603,-138 1603,-138 1215,-138 1215,-138 1215,-138 1215,-151.94 1215,-151.94"/>
<polygon fill="black" stroke="black" points="1211.5,-151.94 1215,-161.94 1218.5,-151.94 1211.5,-151.94"/>
</g>
<!-- NewsCardComponent -->
<g id="node13" class="node">
<title>NewsCardComponent</title>
<polygon fill="#ffffb3" stroke="black" points="1574.42,-122 1433.58,-122 1433.58,-86 1574.42,-86 1574.42,-122"/>
<text text-anchor="middle" x="1504" y="-99.8" font-family="Times,serif" font-size="14.00">NewsCardComponent</text>
</g>
<!-- NewsCardComponent&#45;&gt;SharedModule -->
<g id="edge11" class="edge">
<title>NewsCardComponent&#45;&gt;SharedModule</title>
<path fill="none" stroke="black" d="M1440.72,-122.06C1440.72,-126.49 1440.72,-130 1440.72,-130 1440.72,-130 1198.6,-130 1198.6,-130 1198.6,-130 1198.6,-151.95 1198.6,-151.95"/>
<polygon fill="black" stroke="black" points="1195.1,-151.95 1198.6,-161.95 1202.1,-151.95 1195.1,-151.95"/>
</g>
<!-- SidebarComponent -->
<g id="node14" class="node">
<title>SidebarComponent</title>
<polygon fill="#ffffb3" stroke="black" points="1416.1,-122 1291.9,-122 1291.9,-86 1416.1,-86 1416.1,-122"/>
<text text-anchor="middle" x="1354" y="-99.8" font-family="Times,serif" font-size="14.00">SidebarComponent</text>
</g>
<!-- SidebarComponent&#45;&gt;SharedModule -->
<g id="edge12" class="edge">
<title>SidebarComponent&#45;&gt;SharedModule</title>
<path fill="none" stroke="black" d="M1291.7,-104C1282.16,-104 1275.42,-104 1275.42,-104 1275.42,-104 1275.42,-180 1275.42,-180 1275.42,-180 1274.31,-180 1274.31,-180"/>
<polygon fill="black" stroke="black" points="1274.33,-176.5 1264.33,-180 1274.33,-183.5 1274.33,-176.5"/>
</g>
<!-- MaterialModule -->
<g id="node15" class="node">
<title>MaterialModule</title>
<polygon fill="#8dd3c7" stroke="black" points="1268.47,-122 1265.47,-126 1244.47,-126 1241.47,-122 1161.53,-122 1161.53,-86 1268.47,-86 1268.47,-122"/>
<text text-anchor="middle" x="1215" y="-99.8" font-family="Times,serif" font-size="14.00">MaterialModule</text>
</g>
<!-- MaterialModule&#45;&gt;SharedModule -->
<g id="edge13" class="edge">
<title>MaterialModule&#45;&gt;SharedModule</title>
<path fill="none" stroke="black" d="M1182.19,-122.01C1182.19,-122.01 1182.19,-151.85 1182.19,-151.85"/>
<polygon fill="black" stroke="black" points="1178.69,-151.85 1182.19,-161.85 1185.69,-151.85 1178.69,-151.85"/>
</g>
</g>
</svg>
